/* XPM */
static char * bottom_inactive_xpm[] = {
"32 5 2 1",
" 	c #E1E5EB",
".	c #939393",
"                                ",
"                                ",
"                                ",
"                                ",
"................................"};
