/* XPM */
static char * bottom_left_inactive_xpm[] = {
"26 16 3 1",
" 	c None",
".	c #939393",
"+	c #E1E5EB",
".++++                     ",
".++++                     ",
".++++                     ",
".++++                     ",
".++++                     ",
".++++                     ",
".++++                     ",
".++++                     ",
".++++                     ",
".++++                     ",
".++++                     ",
" .++++++++++++++++++++++++",
" .++++++++++++++++++++++++",
"  .+++++++++++++++++++++++",
"   ..+++++++++++++++++++++",
"     ....................."};
