/* XPM */
static char * bottom_right_active_xpm[] = {
"26 16 3 1",
" 	c None",
".	c #E1E5EB",
"+	c #939393",
"                     ....+",
"                     ....+",
"                     ....+",
"                     ....+",
"                     ....+",
"                     ....+",
"                     ....+",
"                     ....+",
"                     ....+",
"                     ....+",
"                     ....+",
"........................+ ",
"........................+ ",
".......................+  ",
".....................++   ",
"+++++++++++++++++++++     "};
