/* XPM */
static char *close_active[] = {
/* columns rows colors chars-per-pixel */
"16 20 28 1 ",
"  c #2F3131",
". c #313333",
"X c #363030",
"o c #333535",
"O c #363737",
"+ c #383030",
"@ c #363838",
"# c #393A3A",
"$ c #3C3E3E",
"% c #3E3F3F",
"& c #442E2E",
"* c #4B2D2D",
"= c #582B2B",
"- c #6F2727",
"; c #782626",
": c #7F2525",
"> c #702828",
", c #3F4040",
"< c #404141",
"1 c #434444",
"2 c #454646",
"3 c #474848",
"4 c #484848",
"5 c #4B4C4C",
"6 c #8E2323",
"7 c #962121",
"8 c #9B2121",
"9 c #9C2121",
/* pixels */
"                ",
"                ",
"                ",
"        .       ",
"    O342231o    ",
"   <2.    o5#   ",
"  <,        4#  ",
" o3    X.   .4. ",
" 2o  +:99>.  %# ",
" 4   ;9999=  .2 ",
" 4   799996   3 ",
".4   69899>  .2 ",
" 2   =8899&  #, ",
" %,   *--+   2o ",
"  5o        #2  ",
"  o5o      #4   ",
"   o31@ o#31    ",
"     O,31,o     ",
"                ",
"                "
};
