/* XPM */
static char *hide_active[] = {
/* columns rows colors chars-per-pixel */
"16 20 38 1 ",
"  c #33342F",
". c #36372E",
"X c #3F3F29",
"o c #38392D",
"O c #2F3131",
"+ c #303230",
"@ c #313333",
"# c #323434",
"$ c #333535",
"% c #353737",
"& c #363737",
"* c #373939",
"= c #393A3A",
"- c #393B3B",
"; c #3C3E3E",
": c #54521E",
"> c #5B591B",
", c #77730D",
"< c #646116",
"1 c #696614",
"2 c #706C11",
"3 c #494824",
"4 c #424328",
"5 c #3F4040",
"6 c #404141",
"7 c #434444",
"8 c #454646",
"9 c gray28",
"0 c #464848",
"q c #474848",
"w c #484848",
"e c #4B4C4C",
"r c #4C4C4C",
"t c #4C4D4D",
"y c #857F06",
"u c #8C8502",
"i c #8D8802",
"p c #918A00",
/* pixels */
"OOOOOOOOOOOOOOOO",
"OOOOOOOOOOOOOOOO",
"OOOOOOOOOOOOOOOO",
"OOOOOOOO@OOOOOOO",
"OOOO&qw88q7$OOOO",
"OOO68@OOOO$e=OOO",
"OO65OOOOOOOOw=OO",
"O$qOOOO.@OOO@w@O",
"O8@O@o,pp1 OO5=O",
"O9@O@2pppp>OOO7O",
"O9OOOupppp,OOOqO",
"@wOOOypppp2@OOqO",
"OwOOO:ippi4OO*5O",
"O;;OOO31<XOOOq$O",
"OOr$OOOOOOOO=8OO",
"OO$e$OOOOOO-qOOO",
"OOO$97&@$=q7OOOO",
"OOOO@&5875$OOOOO",
"OOOOOOOOOOOOOOOO",
"OOOOOOOOOOOOOOOO"
};
