/* XPM */
static char * left_active_xpm[] = {
"5 128 2 1",
" 	c #404040",
".	c #2F3131",
" ....",
" ....",
" ....",
" ....",
" ....",
" ....",
" ....",
" ....",
" ....",
" ....",
" ....",
" ....",
" ....",
" ....",
" ....",
" ....",
" ....",
" ....",
" ....",
" ....",
" ....",
" ....",
" ....",
" ....",
" ....",
" ....",
" ....",
" ....",
" ....",
" ....",
" ....",
" ....",
" ....",
" ....",
" ....",
" ....",
" ....",
" ....",
" ....",
" ....",
" ....",
" ....",
" ....",
" ....",
" ....",
" ....",
" ....",
" ....",
" ....",
" ....",
" ....",
" ....",
" ....",
" ....",
" ....",
" ....",
" ....",
" ....",
" ....",
" ....",
" ....",
" ....",
" ....",
" ....",
" ....",
" ....",
" ....",
" ....",
" ....",
" ....",
" ....",
" ....",
" ....",
" ....",
" ....",
" ....",
" ....",
" ....",
" ....",
" ....",
" ....",
" ....",
" ....",
" ....",
" ....",
" ....",
" ....",
" ....",
" ....",
" ....",
" ....",
" ....",
" ....",
" ....",
" ....",
" ....",
" ....",
" ....",
" ....",
" ....",
" ....",
" ....",
" ....",
" ....",
" ....",
" ....",
" ....",
" ....",
" ....",
" ....",
" ....",
" ....",
" ....",
" ....",
" ....",
" ....",
" ....",
" ....",
" ....",
" ....",
" ....",
" ....",
" ....",
" ....",
" ....",
" ....",
" ....",
" ...."};
