/* XPM */
static char *maximize_pressed[] = {
/* columns rows colors chars-per-pixel */
"16 20 55 1 ",
"  c #2E352F",
". c #2C3B2E",
"X c #2F3131",
"o c #303232",
"O c #323434",
"+ c #333535",
"@ c #353737",
"# c #363737",
"$ c #373939",
"% c #3A3B3B",
"& c #3E3F3F",
"* c #1D6D1E",
"= c #1A761B",
"- c #1C721C",
"; c #197B19",
": c #187C18",
"> c #187F18",
", c #1B7F1B",
"< c #1E7E1E",
"1 c #29462A",
"2 c #274C28",
"3 c #255226",
"4 c #255327",
"5 c #245726",
"6 c #225D23",
"7 c #206421",
"8 c #227B22",
"9 c #247B24",
"0 c #267826",
"q c #267926",
"w c #2C742C",
"e c #3F653F",
"r c #396D39",
"t c #386E38",
"y c #3C6A3D",
"u c #3E683E",
"i c #307330",
"p c #404241",
"a c #434744",
"s c #444745",
"d c #464747",
"f c #474A47",
"g c #464E47",
"h c #474F48",
"j c #425F42",
"k c #445844",
"l c #475148",
"z c #485649",
"x c #475E48",
"c c #485A48",
"v c #416241",
"b c #436443",
"n c #178217",
"m c #188018",
"M c #1A801A",
/* pixels */
"XXXXXXXXXXXXXXXX",
"XXXXXXXXXXXXXXXX",
"XXXXXXXXXXXXXXXX",
"XXXXXXXXoXXXXXXX",
"XXXX#gerrva+XXXX",
"XXXprMnn:n<b%XXX",
"XXpinnnnnnnnu$XX",
"X+unnnn:nnnnMcoX",
"Xa<n:;2XX5mnni%X",
"Xknnm2XXXo6nn:sX",
"Xvnnn XXXX1nnmlX",
"ovnnn.XXXX2nnmfX",
"XgMMn7XoXX-nn8pX",
"X%wnnn*55=nnnu+X",
"XXzMnnnnnnnnqaXX",
"XX+x<nnnnnnqlXXX",
"XXX+gt8m:qbaXXXX",
"XXXXX@pfa&+XXXXX",
"XXXXXXXXXXXXXXXX",
"XXXXXXXXXXXXXXXX"
};
