/* XPM */
static char *menu_pressed[] = {
/* columns rows colors chars-per-pixel */
"16 20 24 1 ",
"  c #2F3131",
". c #303232",
"X c #323434",
"o c #353737",
"O c #373838",
"+ c #393A3A",
"@ c #3B3C3C",
"# c #3E3F3F",
"$ c #3E4040",
"% c #3F4141",
"& c #404141",
"* c #434444",
"= c #444444",
"- c #474848",
"; c #4A4B4B",
": c #4B4C4C",
"> c #4D4E4E",
", c gray31",
"< c #4F5050",
"1 c #505151",
"2 c #535454",
"3 c #565656",
"4 c #585858",
"5 c gray35",
/* pixels */
"                ",
"                ",
"                ",
"       .        ",
"      #11O      ",
"   +*o2.@;O=o   ",
"  +<&1& .-1#1X  ",
"  *&.    .  :+  ",
" .o1..>33= X2   ",
" #1&.15555= :>O ",
" 1...555553  +- ",
".>+..355553 X%- ",
".o;= <5555= <=o ",
". +1 .:33* X2.  ",
" .=%..    . -@  ",
" .o1=3; X>2-<.  ",
"   .@ >O&-.#    ",
"    ..@:-.      ",
"      ..        ",
"                "
};
