/* XPM */
static char *menu_active[] = {
/* columns rows colors chars-per-pixel */
"16 20 21 1 ",
"  c #2F3131",
". c #303232",
"X c #323434",
"o c #353737",
"O c #363838",
"+ c #393A3A",
"@ c #393B3B",
"# c #3E3F3F",
"$ c #3F4141",
"% c #404141",
"& c #434444",
"* c #444545",
"= c #474848",
"- c #4B4B4B",
"; c #4B4C4C",
": c #4C4C4C",
"> c gray31",
", c #4F5050",
"< c #505151",
"1 c #535454",
"2 c #545555",
/* pixels */
"                ",
"                ",
"                ",
"       .        ",
"      #<,+      ",
"   +&o1.+-o*o   ",
"  +,%<% X*<#<X  ",
"  &%.   ..  ;+  ",
"  O< X*<<% .2.  ",
" #<% -% .-# ;:O ",
" <X..<  .X:  += ",
"X:+..: . o: X%= ",
".O:* -$..;# <;X ",
"  O<  *<,# X<.  ",
"  *$      . -+  ",
" .o<-2= o:1=:.  ",
"   X# :O$*X+X   ",
"      +;;X      ",
"                ",
"                "
};
