/* XPM */
static char * right_active_xpm[] = {
"5 128 2 1",
" 	c #2F3131",
".	c #404040",
"    .",
"    .",
"    .",
"    .",
"    .",
"    .",
"    .",
"    .",
"    .",
"    .",
"    .",
"    .",
"    .",
"    .",
"    .",
"    .",
"    .",
"    .",
"    .",
"    .",
"    .",
"    .",
"    .",
"    .",
"    .",
"    .",
"    .",
"    .",
"    .",
"    .",
"    .",
"    .",
"    .",
"    .",
"    .",
"    .",
"    .",
"    .",
"    .",
"    .",
"    .",
"    .",
"    .",
"    .",
"    .",
"    .",
"    .",
"    .",
"    .",
"    .",
"    .",
"    .",
"    .",
"    .",
"    .",
"    .",
"    .",
"    .",
"    .",
"    .",
"    .",
"    .",
"    .",
"    .",
"    .",
"    .",
"    .",
"    .",
"    .",
"    .",
"    .",
"    .",
"    .",
"    .",
"    .",
"    .",
"    .",
"    .",
"    .",
"    .",
"    .",
"    .",
"    .",
"    .",
"    .",
"    .",
"    .",
"    .",
"    .",
"    .",
"    .",
"    .",
"    .",
"    .",
"    .",
"    .",
"    .",
"    .",
"    .",
"    .",
"    .",
"    .",
"    .",
"    .",
"    .",
"    .",
"    .",
"    .",
"    .",
"    .",
"    .",
"    .",
"    .",
"    .",
"    .",
"    .",
"    .",
"    .",
"    .",
"    .",
"    .",
"    .",
"    .",
"    .",
"    .",
"    .",
"    .",
"    ."};
