/* XPM */
static char *hide_pressed[] = {
/* columns rows colors chars-per-pixel */
"16 20 60 1 ",
"  c #DFBF3E",
". c #E6C233",
"X c #E6C336",
"o c #E3C138",
"O c #E1C03B",
"+ c #E6C33A",
"@ c #DFBF40",
"# c #DBBD46",
"$ c #D7BB4C",
"% c #DABC48",
"& c #D8BC4D",
"* c #CEB75D",
"= c #CFB85C",
"- c #D1B959",
"; c #C4B36F",
": c #C6B46C",
"> c #C2B377",
", c #C0B27A",
"< c #C1B37B",
"1 c #E7C644",
"2 c #E8CA51",
"3 c #E8CB57",
"4 c #E9CF65",
"5 c #EBD47C",
"6 c #BDB287",
"7 c #BFB489",
"8 c #BBB396",
"9 c #BEB9A7",
"0 c #C1B482",
"q c #C0B68D",
"w c #C0B791",
"e c #C0BA9F",
"r c #C1BEB1",
"t c #EBD889",
"y c #EDDC9A",
"u c #C2C0B7",
"i c #C5C3B9",
"p c #EDDEA2",
"a c #EDDEA5",
"s c #EEE2B2",
"d c #EFE5BF",
"f c #C7C6C2",
"g c #CBCAC6",
"h c #C8C8C8",
"j c #CBCBCB",
"k c #CCCCCB",
"l c #CDCCCB",
"z c #D3D3D2",
"x c #D7D7D7",
"c c #DADADA",
"v c #DFDFDF",
"b c #F1ECDA",
"n c #E6E6E6",
"m c gray91",
"M c #EAEAEA",
"N c #ECECEC",
"B c #EFEFEF",
"V c #F2F0E9",
"C c #F1F0EC",
"Z c gray95",
/* pixels */
"ZZZZZZZZZZZZZZZZ",
"ZZZZZZZZZZZZZZZZ",
"ZZZZZZZZZZZZZZZZ",
"ZZZZZZZBCZZZZZZZ",
"ZZZZni0:;qgNZZZZ",
"ZZZz;o.X.. 6vZZZ",
"ZZz*...X....,vZZ",
"ZM,....++..XX9ZZ",
"Zl@..1dZCa...=vC",
"Z8...sZZZZt..+jZ",
"Zq...VZZZZb...rZ",
"Zw...bZZZZp..+fZ",
"ZiXX.5ZZZC3..%zZ",
"Zc-...4py2...>MZ",
"ZZ9o........$gZZ",
"ZZM8 ......&rZZZ",
"ZZZNi;#Xo$<kZZZZ",
"ZZZZZnzhjxMZZZZZ",
"ZZZZZZZZZZZZZZZZ",
"ZZZZZZZZZZZZZZZZ"
};
