/* XPM */
static char * left_inactive_xpm[] = {
"5 128 2 1",
" 	c #bfbfbf",
".	c #F2F2F2",
" ....",
" ....",
" ....",
" ....",
" ....",
" ....",
" ....",
" ....",
" ....",
" ....",
" ....",
" ....",
" ....",
" ....",
" ....",
" ....",
" ....",
" ....",
" ....",
" ....",
" ....",
" ....",
" ....",
" ....",
" ....",
" ....",
" ....",
" ....",
" ....",
" ....",
" ....",
" ....",
" ....",
" ....",
" ....",
" ....",
" ....",
" ....",
" ....",
" ....",
" ....",
" ....",
" ....",
" ....",
" ....",
" ....",
" ....",
" ....",
" ....",
" ....",
" ....",
" ....",
" ....",
" ....",
" ....",
" ....",
" ....",
" ....",
" ....",
" ....",
" ....",
" ....",
" ....",
" ....",
" ....",
" ....",
" ....",
" ....",
" ....",
" ....",
" ....",
" ....",
" ....",
" ....",
" ....",
" ....",
" ....",
" ....",
" ....",
" ....",
" ....",
" ....",
" ....",
" ....",
" ....",
" ....",
" ....",
" ....",
" ....",
" ....",
" ....",
" ....",
" ....",
" ....",
" ....",
" ....",
" ....",
" ....",
" ....",
" ....",
" ....",
" ....",
" ....",
" ....",
" ....",
" ....",
" ....",
" ....",
" ....",
" ....",
" ....",
" ....",
" ....",
" ....",
" ....",
" ....",
" ....",
" ....",
" ....",
" ....",
" ....",
" ....",
" ....",
" ....",
" ....",
" ....",
" ....",
" ...."};
