/* XPM */
static char * right_inactive_xpm[] = {
"5 128 2 1",
" 	c #F2F2F2",
".	c #bfbfbf",
"    .",
"    .",
"    .",
"    .",
"    .",
"    .",
"    .",
"    .",
"    .",
"    .",
"    .",
"    .",
"    .",
"    .",
"    .",
"    .",
"    .",
"    .",
"    .",
"    .",
"    .",
"    .",
"    .",
"    .",
"    .",
"    .",
"    .",
"    .",
"    .",
"    .",
"    .",
"    .",
"    .",
"    .",
"    .",
"    .",
"    .",
"    .",
"    .",
"    .",
"    .",
"    .",
"    .",
"    .",
"    .",
"    .",
"    .",
"    .",
"    .",
"    .",
"    .",
"    .",
"    .",
"    .",
"    .",
"    .",
"    .",
"    .",
"    .",
"    .",
"    .",
"    .",
"    .",
"    .",
"    .",
"    .",
"    .",
"    .",
"    .",
"    .",
"    .",
"    .",
"    .",
"    .",
"    .",
"    .",
"    .",
"    .",
"    .",
"    .",
"    .",
"    .",
"    .",
"    .",
"    .",
"    .",
"    .",
"    .",
"    .",
"    .",
"    .",
"    .",
"    .",
"    .",
"    .",
"    .",
"    .",
"    .",
"    .",
"    .",
"    .",
"    .",
"    .",
"    .",
"    .",
"    .",
"    .",
"    .",
"    .",
"    .",
"    .",
"    .",
"    .",
"    .",
"    .",
"    .",
"    .",
"    .",
"    .",
"    .",
"    .",
"    .",
"    .",
"    .",
"    .",
"    .",
"    .",
"    ."};
