/* XPM */
static char *shade_pressed[] = {
/* columns rows colors chars-per-pixel */
"16 20 14 1 ",
"  c gray",
". c #C0C0C0",
"X c gray77",
"o c #C8C8C8",
"O c #CECECE",
"+ c gray82",
"@ c gray85",
"# c #DDDDDD",
"$ c #E4E4E4",
"% c #E7E7E7",
"& c #EFEFEF",
"* c gray95",
"= c #F6F6F6",
"- c white",
/* pixels */
"****************",
"****************",
"****************",
"****************",
"****************",
"****************",
"****************",
"****************",
"*=**************",
"*@.XXXXXXXXXX.#*",
"*O------------.*",
"&%------------+*",
"*.-----------= *",
"*$oXoooooooooo%*",
"****************",
"****************",
"****************",
"****************",
"****************",
"****************"
};
