/* XPM */
static char *shade_active[] = {
/* columns rows colors chars-per-pixel */
"16 20 11 1 ",
"  c gray75",
". c #C1C1C1",
"X c #C8C8C8",
"o c gray79",
"O c #D8D8D8",
"+ c gray86",
"@ c gray87",
"# c gray90",
"$ c #EAEAEA",
"% c #EFEFEF",
"& c gray95",
/* pixels */
"&&&&&&&&&&&&&&&&",
"&&&&&&&&&&&&&&&&",
"&&&&&&&&&&&&&&&&",
"&&&&&&&&&&&&&&&&",
"&&&&&&&&&&&&&&&&",
"&&&&&&&&&&&&&&&&",
"&&&&&&&&&&&&&&&&",
"&&&&&&&&&&&&&&&&",
"&&&&&&&&&&&&&&&&",
"&+........... @&",
"&X&&&&&&&&&&&% &",
"&O&&&&&&&&&&&&o&",
"&.&&&&&&&&&&&$ &",
"&#oXXXXXXXXooX#&",
"&&&&&&&&&&&&&&&&",
"&&&&&&&&&&&&&&&&",
"&&&&&&&&&&&&&&&&",
"&&&&&&&&&&&&&&&&",
"&&&&&&&&&&&&&&&&",
"&&&&&&&&&&&&&&&&"
};
