/* XPM */
static char * top_right_active_xpm[] = {
"23 23 4 1",
" 	c None",
".	c #bfbfbf",
"+	c #FFFFFF",
"@	c #F2F2F2",
"..................     ",
"++++++++++++++++++..   ",
"@@@@@@@@@@@@@@@@@@++.  ",
"@@@@@@@@@@@@@@@@@@@@+. ",
"@@@@@@@@@@@@@@@@@@@@+. ",
"@@@@@@@@@@@@@@@@@@@@@@.",
"@@@@@@@@@@@@@@@@@@@@@@.",
"@@@@@@@@@@@@@@@@@@@@@@.",
"@@@@@@@@@@@@@@@@@@@@@@.",
"@@@@@@@@@@@@@@@@@@@@@@.",
"@@@@@@@@@@@@@@@@@@@@@@.",
"@@@@@@@@@@@@@@@@@@@@@@.",
"@@@@@@@@@@@@@@@@@@@@@@.",
"@@@@@@@@@@@@@@@@@@@@@@.",
"@@@@@@@@@@@@@@@@@@@@@@.",
"@@@@@@@@@@@@@@@@@@@@@@.",
"@@@@@@@@@@@@@@@@@@@@@@.",
"@@@@@@@@@@@@@@@@@@@@@@.",
"@@@@@@@@@@@@@@@@@@@@@@.",
"@@@@@@@@@@@@@@@@@@@@@@.",
"@@@@@@@@@@@@@@@@@@@@@@.",
"@@@@@@@@@@@@@@@@@@@@@@.",
"@@@@@@@@@@@@@@@@@@@@@@."};
