/* XPM */
static char *close_pressed[] = {
/* columns rows colors chars-per-pixel */
"16 20 50 1 ",
"  c #3D2F2F",
". c #2F3131",
"X c gray19",
"o c #303131",
"O c #333030",
"+ c #353030",
"@ c #333535",
"# c #363737",
"$ c #373939",
"% c #393B3B",
"& c #3A3B3B",
"* c #4C2D2D",
"= c #542B2B",
"- c #5B2A2A",
"; c #612A2A",
": c #6B2828",
"> c #732727",
", c #793E3E",
"< c #404141",
"1 c #414141",
"2 c #444545",
"3 c #464444",
"4 c #4A4747",
"5 c #4E4747",
"6 c #4F4848",
"7 c #5D4646",
"8 c #524949",
"9 c #594A4A",
"0 c #5E4A4A",
"q c #664545",
"w c #6E4343",
"e c #684444",
"r c #6C4646",
"t c #624A4A",
"y c #724242",
"u c #744141",
"i c #872424",
"p c #8B2424",
"a c #8C2E2E",
"s c #8E2E2E",
"d c #932222",
"f c #952222",
"g c #942727",
"h c #972626",
"j c #992323",
"k c #9C2121",
"l c #992424",
"z c #912A2A",
"x c #863333",
"c c #833636",
/* pixels */
"................",
"................",
"......oo........",
".......oo.......",
"....#5w,ue3@....",
"...1,lkkkkgr&...",
"..1ckkkkkkkky$..",
".@ykkkkfjkkkj0o.",
"+3gkjd*.o-jkkx&.",
"o7jkk=..oo:kkj3.",
".ekkk+o.o.*kkk5.",
".qkkk ooo.=kkj4.",
".8jkk>o+X+ikkz1.",
".&xkkk>;;pkkku@.",
"..9jkkkkjkjks3..",
"..@tlkkkkkjs8...",
"...@5,zjjay1....",
".....#1321@.....",
"......o.........",
"................"
};
