/* XPM */
static char * left_inactive_xpm[] = {
"5 128 2 1",
" 	c #404040",
".	c #2F3131",
" ....",
" ....",
" ....",
" ....",
" ....",
" ....",
" ....",
" ....",
" ....",
" ....",
" ....",
" ....",
" ....",
" ....",
" ....",
" ....",
" ....",
" ....",
" ....",
" ....",
" ....",
" ....",
" ....",
" ....",
" ....",
" ....",
" ....",
" ....",
" ....",
" ....",
" ....",
" ....",
" ....",
" ....",
" ....",
" ....",
" ....",
" ....",
" ....",
" ....",
" ....",
" ....",
" ....",
" ....",
" ....",
" ....",
" ....",
" ....",
" ....",
" ....",
" ....",
" ....",
" ....",
" ....",
" ....",
" ....",
" ....",
" ....",
" ....",
" ....",
" ....",
" ....",
" ....",
" ....",
" ....",
" ....",
" ....",
" ....",
" ....",
" ....",
" ....",
" ....",
" ....",
" ....",
" ....",
" ....",
" ....",
" ....",
" ....",
" ....",
" ....",
" ....",
" ....",
" ....",
" ....",
" ....",
" ....",
" ....",
" ....",
" ....",
" ....",
" ....",
" ....",
" ....",
" ....",
" ....",
" ....",
" ....",
" ....",
" ....",
" ....",
" ....",
" ....",
" ....",
" ....",
" ....",
" ....",
" ....",
" ....",
" ....",
" ....",
" ....",
" ....",
" ....",
" ....",
" ....",
" ....",
" ....",
" ....",
" ....",
" ....",
" ....",
" ....",
" ....",
" ....",
" ....",
" ....",
" ...."};
