/* XPM */
static char *maximize_active[] = {
/* columns rows colors chars-per-pixel */
"16 20 37 1 ",
"  c #2D382F",
". c #2C3D2D",
"X c #2F3131",
"o c #2E3730",
"O c #313333",
"+ c #323434",
"@ c #333434",
"# c #333535",
"$ c #353737",
"% c #363737",
"& c #393A3A",
"* c #3C3E3E",
"= c #3D3E3E",
"- c #3E3F3F",
"; c #1D6D1E",
": c #1A781A",
"> c #187D18",
", c #264F27",
"< c #29462A",
"1 c #2A412C",
"2 c #245625",
"3 c #225C22",
"4 c #1F6720",
"5 c #216122",
"6 c #3F4040",
"7 c #404141",
"8 c #434444",
"9 c #454646",
"0 c gray28",
"q c #474848",
"w c #484848",
"e c #494949",
"r c #4B4C4C",
"t c #4C4D4D",
"y c #178217",
"u c #178018",
"i c #188118",
/* pixels */
"XXXXXXXXXXXXXXXX",
"XXXXXXXXXXXXXXXX",
"XXXXXXXXXXXXXXXX",
"XXXXXXXXOXXXXXXX",
"XXXX%qw99q8#XXXX",
"XXX79OXXXX#r&XXX",
"XX76XXXXXXXXw&XX",
"X#qXXXXooXXXOwOX",
"o8+XXo;yi5XXX17#",
"+qXXX;yyyu2XXO9O",
"XqXXX>yyyy;XXXwO",
"OqXXX:>yyy4XXO9X",
"XqXXX,y>>>.XX%7X",
"X**XXX<53.XXXwOX",
"XXr+XXXXXXXX&9OX",
"XX%r+XXXXXO&wXXX",
"XXXO08%++&q8XXXX",
"XXXX+%-q8-+XXXXX",
"XXXXXXXXXXXXXXXX",
"XXXXXXXXXXXXXXXX"
};
