/* XPM */
static char *stick_pressed[] = {
/* columns rows colors chars-per-pixel */
"16 20 21 1 ",
"  c #2F3131",
". c #313232",
"X c #333535",
"o c #343636",
"O c #373939",
"+ c #3A3C3C",
"@ c #3D3E3E",
"# c #404141",
"$ c #404242",
"% c #444545",
"& c #454646",
"* c #484848",
"= c #494A4A",
"- c #4B4C4C",
"; c #4D4E4E",
": c #4E4F4F",
"> c #535353",
", c #555555",
"< c #585858",
"1 c #585959",
"2 c gray35",
/* pixels */
"                ",
"                ",
"      ..        ",
"       o.       ",
"  . O=<<<,&O    ",
"  .#<<<<<<<<+   ",
"  #<<<<<<<<<1O  ",
" X<<<<<<<<<,1>  ",
" *22<>+ o#<<<<#.",
" ,2<<#   .=<<<& ",
" ,<<<X    +,<,=.",
" ,<<<o    @1<1* ",
" ;112;X. X,<<2*.",
" +<,22;#&,<<<<X ",
"  ,122<<1,<<1&  ",
"  X,2<<<<<,1;   ",
"   X=1,<111%    ",
"    .O#=%#X     ",
"      .         ",
"                "
};
