/* XPM */
static char * bottom_right_inactive_xpm[] = {
"25 25 3 1",
" 	c None",
".	c #2F3131",
"+	c #404040",
"                    ....+",
"                    ....+",
"                    ....+",
"                    ....+",
"                    ....+",
"                    ....+",
"                    ....+",
"                    ....+",
"                    ....+",
"                    ....+",
"                    ....+",
"                    ....+",
"                    ....+",
"                    ....+",
"                    ....+",
"                    ....+",
"                    ....+",
"                    ....+",
"                    ....+",
"                    ....+",
".......................+ ",
".......................+ ",
"......................+  ",
"....................++   ",
"++++++++++++++++++++     "};
