/* XPM */
static char * bottom_active_xpm[] = {
"128 5 2 1",
" 	c #2F3131",
".	c #404040",
"                                                                                                                                ",
"                                                                                                                                ",
"                                                                                                                                ",
"                                                                                                                                ",
"................................................................................................................................"};
