/* XPM */
static char *hide_pressed[] = {
/* columns rows colors chars-per-pixel */
"16 20 61 1 ",
"  c #33332F",
". c #34352E",
"X c #3B3C2B",
"o c #2F3131",
"O c #303231",
"+ c #323434",
"@ c #333535",
"# c #363737",
"$ c #373939",
"% c #393B3B",
"& c #3A3B3B",
"* c #3C3E3E",
"= c #57551D",
"- c #5C5A1B",
"; c #77730D",
": c #7E7809",
"> c #656216",
", c #6C6913",
"< c #7E7A1D",
"1 c #4F4F21",
"2 c #494824",
"3 c #494924",
"4 c #504F20",
"5 c #7D7821",
"6 c #75722C",
"7 c #74712E",
"8 c #74702F",
"9 c #6F6D33",
"0 c #6A6837",
"q c #6E6B35",
"w c #65633B",
"e c #66643A",
"r c #63613C",
"t c #68663C",
"y c #404141",
"u c #414241",
"i c #444545",
"p c #454644",
"a c #454645",
"s c #4A4A46",
"d c #4E4E45",
"f c #4F5046",
"g c #525246",
"h c #575746",
"j c #5B5A40",
"k c #5C5B44",
"l c #606043",
"z c #817C08",
"x c #837E15",
"c c #847F14",
"v c #8A8403",
"b c #8D8702",
"n c #888204",
"m c #8D8707",
"M c #8F8802",
"N c #8F8804",
"B c #8A840A",
"V c #8C8509",
"C c #88820F",
"Z c #918A00",
"A c #878111",
/* pixels */
"oooooooooooooooo",
"oooooooooooooooo",
"oooooooOoooooooo",
"oooooooOOooooooo",
"oooo#d077wa@oooo",
"ooou7NZZZZBt&ooo",
"oou5ZZZZZZZZq$oo",
"o@qZZZZvbZZZZkOo",
"oaBZZn3oO=ZZZ5&o",
"ojZZZ1oooo>ZZVao",
"oeZZZ.oooo2ZZZdo",
"orZZZXoooo4ZZZso",
"ofZZZ,Ooo :ZZAuo",
"o*<ZZZ;=-zZZZ9@o",
"oohVZZZZZZZZcaoo",
"oo@lVZZZZZZcgooo",
"ooo@f6CMmxqpoooo",
"ooooo#uaiy+ooooo",
"oooooooooooooooo",
"oooooooooooooooo"
};
