/* XPM */
static char *close_inactive[] = {
/* columns rows colors chars-per-pixel */
"16 20 15 1 ",
"  c #2F3131",
". c #2F3232",
"X c #313333",
"o c #333535",
"O c #363737",
"+ c #373939",
"@ c #393A3A",
"# c #393B3B",
"$ c #3F4040",
"% c #404141",
"& c #434444",
"* c #454646",
"= c #474848",
"- c #484848",
"; c #4B4C4C",
/* pixels */
"                ",
"                ",
"                ",
"        X       ",
"    O=-**=&o    ",
"   %*X    o;@   ",
"  %$        -@  ",
" o=         X-X ",
" =o    .     $# ",
" -    ..  .  o& ",
" =    .. ..   = ",
"o=   ......   = ",
" -    .....  +$ ",
" #$          =o ",
"  ;o        #&  ",
"  o;o      #-   ",
"   o=&+ o+=&    ",
"     +$=&$o     ",
"                ",
"                "
};
