/* XPM */
static char *shade_pressed[] = {
/* columns rows colors chars-per-pixel */
"16 20 13 1 ",
"  c #2E3131",
". c #2F3131",
"X c #313232",
"o c #353737",
"O c #3B3C3C",
"+ c #3D3E3E",
"@ c #464747",
"# c #494A4A",
"$ c #505050",
"% c #525353",
"& c #555555",
"* c #585858",
"= c gray35",
/* pixels */
"................",
"................",
"................",
"................",
"................",
"................",
"................",
"................",
"................",
".O%&%%&&%%%%%%O.",
".*==**=======*&.",
"X*=***=======**.",
"X&*=*=====*===&.",
".o#########@#@o.",
"..X.....X.......",
"................",
"... ............",
"................",
"................",
"................"
};
