/* XPM */
static char *shade_active[] = {
/* columns rows colors chars-per-pixel */
"16 20 9 1 ",
"  c #2F3131",
". c #303232",
"X c #353737",
"o c #3B3C3C",
"O c #3D3E3E",
"+ c #444545",
"@ c #474848",
"# c #494B4B",
"$ c #4C4C4C",
/* pixels */
"                ",
"                ",
"                ",
"                ",
"                ",
"                ",
"                ",
"                ",
" .              ",
" O###########$o ",
".+           .$ ",
".O            + ",
".#...  . ... X$ ",
".X@+@++@+@+++@X ",
"  .     ..      ",
"   .            ",
"                ",
"                ",
"                ",
"                "
};
