/* XPM */
static char *stick_active[] = {
/* columns rows colors chars-per-pixel */
"16 20 20 1 ",
"  c #2F3131",
". c #313333",
"X c #333535",
"o c #363737",
"O c #373939",
"+ c #393A3A",
"@ c #393B3B",
"# c #3C3E3E",
"$ c #3F4040",
"% c #404141",
"& c #434444",
"* c #454646",
"= c #474848",
"- c #4B4B4B",
"; c #4B4C4C",
": c #4E4E4E",
"> c gray33",
", c #565656",
"< c #575858",
"1 c gray35",
/* pixels */
"                ",
"                ",
"                ",
"       ..       ",
"    o=***=&.    ",
"   %*.    o-+   ",
"  %$        *O  ",
" X=    X   ..-. ",
".$X  X:11-.  $+ ",
" -   -111<%  .& ",
" *   ,1111:   = ",
" :   ,1111;   = ",
" -   $1<1,O  O$ ",
" +#   +;*O   =X ",
"  -X        +*  ",
"  X-X      O-   ",
"   X-&O X+=&    ",
"     X$*&$X     ",
"                ",
"                "
};
