/* XPM */
static char *close_active[] = {
/* columns rows colors chars-per-pixel */
"16 20 38 1 ",
"  c #ED5F5D",
". c #ED615F",
"X c #EE6462",
"o c #ED6664",
"O c #ED716F",
"+ c gray75",
"@ c #EF8685",
"# c #EF908F",
"$ c #EF9290",
"% c #EF9B99",
"& c #EF9D9B",
"* c #EFA2A1",
"= c #F0B0AF",
"- c #F0BAB9",
"; c #C1C1C1",
": c #C3C3C3",
"> c #C5C5C5",
", c #CACACA",
"< c gray80",
"1 c #CDCDCD",
"2 c LightGray",
"3 c gray84",
"4 c gray85",
"5 c #DFDFDF",
"6 c #F0CCCB",
"7 c #F1D5D5",
"8 c #F1DBDB",
"9 c gray88",
"0 c gray89",
"q c gray90",
"w c gray91",
"e c #EAEAEA",
"r c #ECECEC",
"t c gray93",
"y c #EFEFEF",
"u c #F1E5E5",
"i c #F2EFEF",
"p c gray95",
/* pixels */
"pppppppppppppppp",
"pppppppppppppppp",
"pppppppppppppppp",
"pppppppyyppppppp",
"ppppq>>1,;,ypppp",
"ppp2,pppppe;9ppp",
"pp23pppppppp>9pp",
"pe>ppppuipppp+pp",
"p,eppu@ .%ipp45p",
"p;ppp#    =ppy,p",
"p>pppo    @ppp>p",
"p;pppO    $ppp>p",
"p>ppp-   X7pp93p",
"p44ppp6&*8ppp,ep",
"pp;epppppppp9,pp",
"ppe;eppppppq;ppp",
"pppe;,qpy5>,pppp",
"pppppe2,,3yppppp",
"pppppppppppppppp",
"pppppppppppppppp"
};
