/* XPM */
static char *maximize_pressed[] = {
/* columns rows colors chars-per-pixel */
"16 20 62 1 ",
"  c #6DBF40",
". c #6FBE44",
"X c #71BE46",
"o c #72BC4A",
"O c #74BC4C",
"+ c #77BA53",
"@ c #79B956",
"# c #7BB959",
"$ c #6FC043",
"% c #72C146",
"& c #76C24C",
"* c #79C44F",
"= c #80B762",
"- c #82B665",
"; c #89B372",
": c #89B273",
"> c #8BB275",
", c #8FB27C",
"< c #91B17F",
"1 c #82C75C",
"2 c #86C862",
"3 c #90CD6E",
"4 c #92B280",
"5 c #96B387",
"6 c #98B18B",
"7 c #9AB38D",
"8 c #9DB590",
"9 c #A0B694",
"0 c #A2B398",
"q c #A8B6A1",
"w c #AFB9A9",
"e c #B6BDB3",
"r c #A0D284",
"t c #A9D690",
"y c #B5DBA0",
"u c #BADCA8",
"i c #BCDDAA",
"p c #BBC1B8",
"a c #BDC3BA",
"s c #C4E0B5",
"d c #C5E1B6",
"f c #C4C6C3",
"g c #C8CAC7",
"h c #C8C8C8",
"j c #CBCCCB",
"k c #D1D1D0",
"l c #D2D3D2",
"z c #D7D7D7",
"x c #DADADA",
"c c #DFDFDF",
"v c #CEE5C2",
"b c #CFE4C3",
"n c #E2ECDC",
"m c gray89",
"M c #E6E6E6",
"N c gray91",
"B c #EAEAEA",
"V c gray92",
"C c gray93",
"Z c #EFEFEF",
"A c #ECF0E9",
"S c gray95",
/* pixels */
"SSSSSSSSSSSSSSSS",
"SSSSSSSSSSSSSSSS",
"SSSSSSSSSSSSSSSS",
"SSSSSSSZZSSSSSSS",
"SSSSMa5:>8hZSSSS",
"SSSl>     o6cSSS",
"SSl-        4mSS",
"SB<    &%    qSS",
"Sko  *vSSi.  -cS",
"S0$  dSSSSt  XhS",
"S7   ASSSSb   aS",
"S9   nSSSSs   fS",
"Sa   rSSSV2  +lS",
"Sx=   3uy1   ,ZS",
"SSwo        @hSS",
"SSB0o      @eSSS",
"SSSBa;+%X@<jSSSS",
"SSSSSMlhhzZSSSSS",
"SSSSSSSSSSSSSSSS",
"SSSSSSSSSSSSSSSS"
};
