/* XPM */
static char *menu_pressed[] = {
/* columns rows colors chars-per-pixel */
"16 20 19 1 ",
"  c #AFAFAF",
". c #B2B2B2",
"X c #B4B4B4",
"o c gray72",
"O c gray",
"+ c #C1C1C1",
"@ c #C5C5C5",
"# c gray79",
"$ c #CDCDCD",
"% c LightGray",
"& c #D7D7D7",
"* c #D8D8D8",
"= c #DFDFDF",
"- c gray88",
"; c #E4E4E4",
": c gray91",
"> c #EEEEEE",
", c gray95",
"< c #FEFEFE",
/* pixels */
",,,,,,,,,,,,,,,,",
",,,,,,,,,,,,,,,,",
",,,,,,,,,,,,,,,,",
",,,,,,,,,,,,,,,,",
",,,,,,&XX;,,,,,,",
",,,-$:.>=+;$:,,,",
",,-o%X%,>#X*.>,,",
",,$%,,,,,,,,+-,,",
",,:X,>@Oo&,> ,,,",
",*X%,+><<%*,Oo;,",
",X>,,+<<<<O,,=#,",
",o->,@<<<<O,:%#,",
",;O$,@:<<%*,o#:,",
",,;X,>#oX*,>.,,,",
",,$*,,,,,,,,+=,,",
",,;X@ @,:O #o,,,",
",,,:=,X;&#>*,,,,",
",,,,,,-++>,,,,,,",
",,,,,,,,,,,,,,,,",
",,,,,,,,,,,,,,,,"
};
