/* XPM */
static char * bottom_active_xpm[] = {
"128 5 2 1",
" 	c #F2F2F2",
".	c #bfbfbf",
"                                                                                                                                ",
"                                                                                                                                ",
"                                                                                                                                ",
"                                                                                                                                ",
"................................................................................................................................"};
