/* XPM */
static char *close_pressed[] = {
/* columns rows colors chars-per-pixel */
"16 20 64 1 ",
"  c #EC5F5D",
". c #ED5F5D",
"X c #EB615F",
"o c #EC615F",
"O c #DF6C6A",
"+ c #DD6E6D",
"@ c #DC706F",
"# c #D67775",
"$ c #D37978",
"% c #E76462",
"& c #E56765",
"* c #EA6361",
"= c #ED6260",
"- c #ED6462",
"; c #E56866",
": c #ED6967",
"> c #E16B69",
", c #EE6C6A",
"< c #EE7674",
"1 c #ED7B79",
"2 c #BF9493",
"3 c #BC9F9E",
"4 c #BEA6A6",
"5 c #BFADAD",
"6 c #C78483",
"7 c #CA8281",
"8 c #C88483",
"9 c #C38B8A",
"0 c #C58988",
"q c #C48C8B",
"w c #C49291",
"e c #C19695",
"r c #C29999",
"t c #C29C9C",
"y c #EF8584",
"u c #EF9796",
"i c #C2A7A7",
"p c #C1B5B5",
"a c #C3BABA",
"s c #C4BABA",
"d c #EFA1A0",
"f c #F0AFAE",
"g c #F0B4B4",
"h c #F0BFBF",
"j c #C8C4C4",
"k c #C8C8C8",
"l c #CBCACA",
"z c #CCC8C8",
"x c #CDCBCB",
"c c #D3D2D2",
"v c LightGray",
"b c #D7D7D7",
"n c #DADADA",
"m c #DFDFDF",
"M c #F0CBCA",
"N c gray89",
"B c #E6E6E6",
"V c #EAEAEA",
"C c gray92",
"Z c #EFEFEF",
"A c #F2E0E0",
"S c #F2EBEB",
"D c #F1EDED",
"F c gray95",
/* pixels */
"FFFFFFFFFFFFFFFF",
"FFFFFFFFFFFFFFFF",
"FFFFFFFFFFFFFFFF",
"FFFFFFFZFFFFFFFF",
"FFFFBsw76rjZFFFF",
"FFFc8*....&2mFFF",
"FFc$........9NFF",
"FV9....:-...X4FF",
"Fx&..,MFFg=..$mF",
"Fi...hFFFFd..*lF",
"Fe...SFFFFM...aF",
"Ft...AFFFFh...jF",
"Fso..uFFFD1..OcF",
"Fn#...ygf<...0CF",
"FF5%........+lFF",
"FFV3&......+pFFF",
"FFFZa7>X*+9lFFFF",
"FFFFFBcllbZFFFFF",
"FFFFFFFFFFFFFFFF",
"FFFFFFFFFFFFFFFF"
};
