/* XPM */
static char * left_active_xpm[] = {
"5 128 2 1",
" 	c #bfbfbf",
".	c #F2F2F2",
" ....",
" ....",
" ....",
" ....",
" ....",
" ....",
" ....",
" ....",
" ....",
" ....",
" ....",
" ....",
" ....",
" ....",
" ....",
" ....",
" ....",
" ....",
" ....",
" ....",
" ....",
" ....",
" ....",
" ....",
" ....",
" ....",
" ....",
" ....",
" ....",
" ....",
" ....",
" ....",
" ....",
" ....",
" ....",
" ....",
" ....",
" ....",
" ....",
" ....",
" ....",
" ....",
" ....",
" ....",
" ....",
" ....",
" ....",
" ....",
" ....",
" ....",
" ....",
" ....",
" ....",
" ....",
" ....",
" ....",
" ....",
" ....",
" ....",
" ....",
" ....",
" ....",
" ....",
" ....",
" ....",
" ....",
" ....",
" ....",
" ....",
" ....",
" ....",
" ....",
" ....",
" ....",
" ....",
" ....",
" ....",
" ....",
" ....",
" ....",
" ....",
" ....",
" ....",
" ....",
" ....",
" ....",
" ....",
" ....",
" ....",
" ....",
" ....",
" ....",
" ....",
" ....",
" ....",
" ....",
" ....",
" ....",
" ....",
" ....",
" ....",
" ....",
" ....",
" ....",
" ....",
" ....",
" ....",
" ....",
" ....",
" ....",
" ....",
" ....",
" ....",
" ....",
" ....",
" ....",
" ....",
" ....",
" ....",
" ....",
" ....",
" ....",
" ....",
" ....",
" ....",
" ....",
" ....",
" ...."};
