/* XPM */
static char *maximize_active[] = {
/* columns rows colors chars-per-pixel */
"16 20 46 1 ",
"  c #6DBF40",
". c #6EBF41",
"X c #6FC042",
"o c #7DC556",
"O c #90CD6F",
"+ c #9AD07C",
"@ c #9BD17D",
"# c gray74",
"$ c gray75",
"% c #A3D488",
"& c #A5D58A",
"* c #AAD692",
"= c #B6DBA2",
"- c #BFDFAE",
"; c #C1C1C1",
": c #C3C3C3",
"> c gray77",
", c #C5C5C5",
"< c gray78",
"1 c #C8C8C8",
"2 c #CACACA",
"3 c #CBCBCB",
"4 c #CDCDCD",
"5 c #D2D2D2",
"6 c LightGray",
"7 c gray84",
"8 c #D7D7D7",
"9 c gray85",
"0 c #DADADA",
"q c #DFDFDF",
"w c #CFE4C4",
"e c #D8E8CF",
"r c #DDEAD6",
"t c gray89",
"y c gray90",
"u c #E6E6E6",
"i c #E6EDE3",
"p c #E9EFE6",
"a c gray91",
"s c #EAEAEA",
"d c #ECECEC",
"f c gray93",
"g c #EFEFEF",
"h c #EDF0EC",
"j c #F1F1F1",
"k c gray95",
/* pixels */
"kkkkkkkkkkkkkkkk",
"kkkkkkkkkkkkkkkk",
"kkkkkkkkkkkkkkkk",
"kkkkkkkkgkkkkkkk",
"kkkky,,22;2gkkkk",
"kkk62kkkkks;qkkk",
"kk67kkkkkkkk,tkk",
"ks,kkkkpgkkkk#kk",
"k2dkkiO .%hkk9qk",
"k>kkk+.   =kkh2k",
"k,kkk..   Okkk,k",
"k>kkko..  +kkk2k",
"k,kkk-....ekky6k",
"k99kkkw&*rkkk,sk",
"kk#gkkkkkkkkt2kk",
"kks#skkkkkkt;kkk",
"kkks;2ykhq14kkkk",
"kkkkks6<37dkkkkk",
"kkkkkkkkkkkkkkkk",
"kkkkkkkkkkkkkkkk"
};
