/* XPM */
static char *menu_active[] = {
/* columns rows colors chars-per-pixel */
"16 20 18 1 ",
"  c #AFAFAF",
". c #B2B2B2",
"X c #B4B4B4",
"o c gray72",
"O c gray75",
"+ c #C1C1C1",
"@ c gray78",
"# c gray79",
"$ c #CDCDCD",
"% c LightGray",
"& c #D7D7D7",
"* c #D8D8D8",
"= c #DFDFDF",
"- c gray88",
"; c #E4E4E4",
": c gray91",
"> c #EEEEEE",
", c gray95",
/* pixels */
",,,,,,,,,,,,,,,,",
",,,,,,,,,,,,,,,,",
",,,,,,,,,,,,,,,,",
",,,,,,,,,,,,,,,,",
",,,,,,&XX;,,,,,,",
",,,-$:.>=+;$:,,,",
",,-o%X%,>#X*.>,,",
",,$%,,,,,,,,+-,,",
",,:X,,@XX&,> ,,,",
",*X%,+%,>+*,Oo;,",
",X>,>o,,,:O,,=#,",
",o-,,X,,,:+,:%#,",
",;O#,@%,>O*,o@:,",
",,:X,>@XX&,>.,,,",
",,$&,>,,,,,,@=,,",
",,;X@ @,:O #X,,,",
",,,:=,X;&#>*,,,,",
",,,,,,-++>,,,,,,",
",,,,,,,,,,,,,,,,",
",,,,,,,,,,,,,,,,"
};
