/* XPM */
static char *stick_pressed[] = {
/* columns rows colors chars-per-pixel */
"16 20 16 1 ",
"  c #B1B1B1",
". c #B6B6B6",
"X c gray73",
"o c gray75",
"O c gray76",
"+ c #C6C6C6",
"@ c #CACACA",
"# c gray80",
"$ c LightGray",
"% c gray86",
"& c #DDDDDD",
"* c gray89",
"= c gray90",
"- c #EAEAEA",
"; c #ECECEC",
": c gray95",
/* pixels */
"::::::::::::::::",
"::::::::::::::::",
"::::::::::::::::",
"::::::::::::::::",
"::::=O    @;::::",
":::$ oooOoo &:::",
"::$.oooooooo *::",
":- ooooOOoooo.::",
":@oooO=::%Ooo.&:",
":Xooo*::::$ooo@:",
": ooo;::::*oooO:",
":.ooO;::::*ooo+:",
":Oooo$::::+ooX$:",
":%.ooo#&%+ooo -:",
"::XoooooooooX@::",
"::- XooooooXo:::",
":::-O.XoOX #::::",
":::::=$+#$;:::::",
"::::::::::::::::",
"::::::::::::::::"
};
