/* XPM */
static char *hide_active[] = {
/* columns rows colors chars-per-pixel */
"16 20 41 1 ",
"  c #E6C233",
". c #E6C234",
"X c #E6C43C",
"o c #E7C84B",
"O c #E9CF66",
"+ c #EAD273",
"@ c #EBD375",
"# c gray74",
"$ c #EBD680",
"% c #EBD683",
"& c #EBD88B",
"* c #EDDC9C",
"= c #EDE0A9",
"- c #C1C1C1",
"; c #C3C3C3",
": c gray77",
"> c #C5C5C5",
", c #C8C8C8",
"< c #CACACA",
"1 c #CBCBCB",
"2 c gray80",
"3 c LightGray",
"4 c gray84",
"5 c #DADADA",
"6 c #DFDFDF",
"7 c #EFE5C0",
"8 c #EFE8CD",
"9 c #F0EAD4",
"0 c gray88",
"q c gray89",
"w c gray90",
"e c gray91",
"r c #EAEAEA",
"t c #ECECEC",
"y c #EFEFEF",
"u c #F1EEE1",
"i c #F1EFE5",
"p c #F2F1EB",
"a c #F2F1EF",
"s c gray94",
"d c gray95",
/* pixels */
"dddddddddddddddd",
"dddddddddddddddd",
"dddddddddddddddd",
"ddddddddyddddddd",
"ddddw>><<-<ydddd",
"ddd3<dddddr-6ddd",
"dd34dddddddd>qdd",
"dr>ddddipdddd#dd",
"d2rdduO .$add46d",
"d-ddd+    *ddy<d",
"d>dddX.   Oddd>d",
"d-dddo..  @ddd<d",
"d>ddd=....8ddq3d",
"d55ddd7$&9ddd>rd",
"dd#yddddddddq2dd",
"ddr#rddddddq-ddd",
"dddr-2wdy6>2dddd",
"dddddr4><4yddddd",
"dddddddddddddddd",
"dddddddddddddddd"
};
