/* XPM */
static char *maximize_inactive[] = {
/* columns rows colors chars-per-pixel */
"16 20 14 1 ",
"  c gray74",
". c #C1C1C1",
"X c #C5C5C5",
"o c #CACACA",
"O c gray80",
"+ c LightGray",
"@ c gray84",
"# c #DADADA",
"$ c #DFDFDF",
"% c gray89",
"& c gray90",
"* c #EAEAEA",
"= c #EFEFEF",
"- c gray95",
/* pixels */
"----------------",
"----------------",
"----------------",
"--------=-------",
"----&XXoo.o=----",
"---+o-----*.$---",
"--+@--------X%--",
"-*X---------- --",
"-o*----------@$-",
"-.-----------=o-",
"-X------------X-",
"-.------------X-",
"-X-----------%+-",
"-##----------o*-",
"-- =--------%o--",
"--* *------%.---",
"---*.O&-=%Xo----",
"-----*+XO@=-----",
"----------------",
"----------------"
};
