/* XPM */
static char *stick_active[] = {
/* columns rows colors chars-per-pixel */
"16 20 14 1 ",
"  c gray74",
". c #C0C0C0",
"X c #C5C5C5",
"o c #CACACA",
"O c gray80",
"+ c LightGray",
"@ c gray84",
"# c gray86",
"$ c #DFDFDF",
"% c gray89",
"& c gray90",
"* c #EAEAEA",
"= c #EEEEEE",
"- c gray95",
/* pixels */
"----------------",
"----------------",
"----------------",
"-------=--------",
"----&XXOo.o=----",
"---+o-----*.$---",
"--+@--------X%--",
"-*X----=----- --",
"-o*--*O..@---@$-",
"-X---+.   #--=o-",
"-X---.....O---X-",
"-.---X .. +---o-",
"-.---%  ..&--%+-",
"-$#---%@@*---X*-",
"-- =--------%O--",
"--* *------%.---",
"---*XO&-=%Xo----",
"-----&+oo@=-----",
"----------------",
"----------------"
};
